<?xml version="1.0" encoding="UTF-8" standalone="no"?><!DOCTYPE svg PUBLIC "-//W3C//DTD SVG 1.1//EN" "http://www.w3.org/Graphics/SVG/1.1/DTD/svg11.dtd"><svg width="100%" height="100%" viewBox="0 0 11 11" version="1.1" xmlns="http://www.w3.org/2000/svg" xmlns:xlink="http://www.w3.org/1999/xlink" xml:space="preserve" xmlns:serif="http://www.serif.com/" style="fill-rule:evenodd;clip-rule:evenodd;stroke-linejoin:round;stroke-miterlimit:2;"><g><path d="M2.425,1.92l-0,-1.92l-1.839,0l0,1.92l-0.586,0l-0,1.838l0.586,0l0,6.597l1.839,0l-0,-6.597l0.586,0l-0,-1.838l-0.586,0Z" style="fill:#ffc80b;"/><path d="M9.769,3.339l-0,-3.339l-1.838,0l-0,3.339l-0.587,0l0,1.839l0.587,-0l-0,5.177l1.838,0l-0,-5.177l0.586,-0l0,-1.839l-0.586,0Z" style="fill:#ffc80b;"/><path d="M6.097,7.358l-0,-7.358l-1.839,0l0,7.358l-0.586,-0l0,1.838l0.586,-0l0,1.159l1.839,0l-0,-1.159l0.586,-0l-0,-1.838l-0.586,-0Z" style="fill:#ffc80b;"/></g></svg>