<?xml version="1.0" encoding="UTF-8" standalone="no"?><!DOCTYPE svg PUBLIC "-//W3C//DTD SVG 1.1//EN" "http://www.w3.org/Graphics/SVG/1.1/DTD/svg11.dtd"><svg width="100%" height="100%" viewBox="0 0 11 8" version="1.1" xmlns="http://www.w3.org/2000/svg" xmlns:xlink="http://www.w3.org/1999/xlink" xml:space="preserve" xmlns:serif="http://www.serif.com/" style="fill-rule:evenodd;clip-rule:evenodd;stroke-linejoin:round;stroke-miterlimit:2;"><g><path d="M6.101,4.584c0.237,-0.236 0.383,-0.563 0.383,-0.924c0,-0.36 -0.146,-0.687 -0.383,-0.924l0.954,-0.953c0.48,0.481 0.778,1.145 0.778,1.877c-0,0.733 -0.298,1.397 -0.778,1.878l-0.954,-0.954Zm-2.801,0.954c-0.48,-0.481 -0.778,-1.145 -0.778,-1.878c0,-0.732 0.298,-1.396 0.778,-1.877l0.954,0.953c-0.237,0.237 -0.383,0.564 -0.383,0.924c-0,0.361 0.146,0.688 0.383,0.924l-0.954,0.954Z" style="fill:#053160;"/><path d="M1.517,7.321c-0.937,-0.937 -1.517,-2.232 -1.517,-3.661c0,-1.428 0.58,-2.723 1.517,-3.66l0.953,0.953c-0.693,0.693 -1.122,1.651 -1.122,2.707c0,1.057 0.429,2.014 1.122,2.707l-0.953,0.954Zm6.368,-0.954c0.693,-0.693 1.122,-1.65 1.122,-2.707c-0,-1.056 -0.429,-2.014 -1.122,-2.707l0.953,-0.953c0.937,0.937 1.517,2.232 1.517,3.66c0,1.429 -0.58,2.724 -1.517,3.661l-0.953,-0.954Z" style="fill:#053160;"/></g></svg>